<?xml version="1.0" encoding="UTF-8"?>
<svg xmlns="http://www.w3.org/2000/svg" style="display:none" aria-hidden="true">
  <symbol id="ph-icon-dashboard" viewBox="0 0 24 24">
    <rect x="3" y="3" width="8" height="8" rx="1.5"/>
    <rect x="13" y="3" width="8" height="5" rx="1.5"/>
    <rect x="13" y="10" width="8" height="11" rx="1.5"/>
    <rect x="3" y="13" width="8" height="8" rx="1.5"/>
  </symbol>
  <symbol id="ph-icon-projects" viewBox="0 0 24 24">
    <path d="M4 7h16v12H4z" rx="1"/>
    <path d="M8 7V5a2 2 0 0 1 2-2h4a2 2 0 0 1 2 2v2"/>
  </symbol>
  <symbol id="ph-icon-hive" viewBox="0 0 24 24">
    <path d="M12 2l8 4.5v9L12 20l-8-4.5v-9L12 2z"/>
    <path d="M12 8l4 2.2v4.4L12 17l-4-2.4v-4.4L12 8z"/>
  </symbol>
  <symbol id="ph-icon-workers" viewBox="0 0 24 24">
    <circle cx="8" cy="8" r="2.5"/>
    <circle cx="16" cy="8" r="2.5"/>
    <circle cx="12" cy="16" r="2.5"/>
    <path d="M10 9.5 11 13M14 9.5 13 13"/>
  </symbol>
  <symbol id="ph-icon-queen" viewBox="0 0 24 24">
    <path d="M12 3l2 4h4l-3 3 1 4-4-2-4 2 1-4-3-3h4l2-4z"/>
    <circle cx="12" cy="11" r="2"/>
  </symbol>
  <symbol id="ph-icon-nodes" viewBox="0 0 24 24">
    <circle cx="6" cy="6" r="2"/>
    <circle cx="18" cy="6" r="2"/>
    <circle cx="12" cy="18" r="2"/>
    <path d="M8 7l8-1M7 8l4 8M17 8l-4 8"/>
  </symbol>
  <symbol id="ph-icon-audio" viewBox="0 0 24 24">
    <path d="M4 12h2l2-6 3 12 3-9 2 3h4"/>
  </symbol>
  <symbol id="ph-icon-synth" viewBox="0 0 24 24">
    <rect x="3" y="6" width="18" height="12" rx="2"/>
    <circle cx="8" cy="12" r="1.5"/>
    <circle cx="12" cy="12" r="1.5"/>
    <circle cx="16" cy="12" r="1.5"/>
    <path d="M7 9h2M11 9h2M15 9h2"/>
  </symbol>
  <symbol id="ph-icon-mixer" viewBox="0 0 24 24">
    <path d="M6 4v16M12 4v16M18 4v16"/>
    <circle cx="6" cy="10" r="2"/>
    <circle cx="12" cy="14" r="2"/>
    <circle cx="18" cy="8" r="2"/>
  </symbol>
  <symbol id="ph-icon-patch" viewBox="0 0 24 24">
    <circle cx="6" cy="8" r="2.5"/>
    <circle cx="18" cy="16" r="2.5"/>
    <path d="M8.5 9c4 0 3 6 7 6"/>
  </symbol>
  <symbol id="ph-icon-cable" viewBox="0 0 24 24">
    <path d="M4 8c4 0 4 8 8 8s4-8 8-8"/>
    <circle cx="4" cy="8" r="1.5"/>
    <circle cx="20" cy="8" r="1.5"/>
  </symbol>
  <symbol id="ph-icon-signal" viewBox="0 0 24 24">
    <path d="M3 12h3l2-5 3 10 3-7 2 2h5"/>
    <path d="M18 7v2M20 6v4M22 8v0"/>
  </symbol>
  <symbol id="ph-icon-ai" viewBox="0 0 24 24">
    <circle cx="12" cy="12" r="8"/>
    <path d="M9 10h.01M15 10h.01"/>
    <path d="M9 15c1 1 5 1 6 0"/>
    <path d="M12 4v2M12 18v2M4 12h2M18 12h2"/>
  </symbol>
  <symbol id="ph-icon-search" viewBox="0 0 24 24">
    <circle cx="11" cy="11" r="6"/>
    <path d="M16 16l4 4"/>
  </symbol>
  <symbol id="ph-icon-import" viewBox="0 0 24 24">
    <path d="M12 4v10"/>
    <path d="M8 10l4 4 4-4"/>
    <path d="M5 18h14"/>
  </symbol>
  <symbol id="ph-icon-export" viewBox="0 0 24 24">
    <path d="M12 14V4"/>
    <path d="M8 8l4-4 4 4"/>
    <path d="M5 18h14"/>
  </symbol>
  <symbol id="ph-icon-analyze" viewBox="0 0 24 24">
    <path d="M4 19V5"/>
    <path d="M4 19h16"/>
    <path d="M8 15l3-4 3 2 4-6"/>
  </symbol>
  <symbol id="ph-icon-repair" viewBox="0 0 24 24">
    <path d="M14.5 5.5a4 4 0 0 1 4 4L12 16l-4-4 6.5-6.5z"/>
    <path d="M8 16l-3 3"/>
  </symbol>
  <symbol id="ph-icon-version" viewBox="0 0 24 24">
    <circle cx="6" cy="6" r="2"/>
    <circle cx="6" cy="18" r="2"/>
    <circle cx="18" cy="12" r="2"/>
    <path d="M6 8v8M8 6h6a4 4 0 0 1 4 4"/>
  </symbol>
  <symbol id="ph-icon-history" viewBox="0 0 24 24">
    <circle cx="12" cy="12" r="8"/>
    <path d="M12 8v5l3 2"/>
  </symbol>
  <symbol id="ph-icon-cloud" viewBox="0 0 24 24">
    <path d="M7 18h11a4 4 0 0 0 0-8 6 6 0 0 0-11.5-1.5A4 4 0 0 0 7 18z"/>
  </symbol>
  <symbol id="ph-icon-git" viewBox="0 0 24 24">
    <circle cx="6" cy="6" r="2"/>
    <circle cx="6" cy="18" r="2"/>
    <circle cx="18" cy="12" r="2"/>
    <path d="M6 8v8M8 6c6 0 8 2 8 6"/>
  </symbol>
  <symbol id="ph-icon-build" viewBox="0 0 24 24">
    <path d="M4 18h16"/>
    <path d="M6 18V9l6-5 6 5v9"/>
    <path d="M10 18v-5h4v5"/>
  </symbol>
  <symbol id="ph-icon-settings" viewBox="0 0 24 24">
    <circle cx="12" cy="12" r="3"/>
    <path d="M12 3v2M12 19v2M4.9 4.9l1.4 1.4M17.7 17.7l1.4 1.4M3 12h2M19 12h2M4.9 19.1l1.4-1.4M17.7 6.3l1.4-1.4"/>
  </symbol>
  <symbol id="ph-icon-plugin" viewBox="0 0 24 24">
    <rect x="5" y="8" width="14" height="10" rx="2"/>
    <path d="M9 8V5M15 8V5"/>
    <path d="M9 18v2M15 18v2"/>
  </symbol>
  <symbol id="ph-icon-documentation" viewBox="0 0 24 24">
    <path d="M6 4h9l3 3v13H6z"/>
    <path d="M15 4v3h3"/>
    <path d="M9 12h6M9 15h4"/>
  </symbol>
  <symbol id="ph-icon-package" viewBox="0 0 24 24">
    <path d="M12 3l8 4v10l-8 4-8-4V7l8-4z"/>
    <path d="M12 12l8-4M12 12v11M12 12L4 8"/>
  </symbol>
  <symbol id="ph-icon-performance" viewBox="0 0 24 24">
    <path d="M4 16l4-6 3 3 5-8 4 0"/>
    <path d="M4 19h16"/>
  </symbol>
  <symbol id="ph-icon-latency" viewBox="0 0 24 24">
    <path d="M3 12h6l2-4 2 8 2-4h6"/>
    <circle cx="5" cy="12" r="1"/>
    <circle cx="19" cy="12" r="1"/>
  </symbol>
  <symbol id="ph-icon-cpu" viewBox="0 0 24 24">
    <rect x="7" y="7" width="10" height="10" rx="1"/>
    <path d="M9 3v2M12 3v2M15 3v2M9 19v2M12 19v2M15 19v2M3 9h2M3 12h2M3 15h2M19 9h2M19 12h2M19 15h2"/>
  </symbol>
  <symbol id="ph-icon-gpu" viewBox="0 0 24 24">
    <rect x="4" y="7" width="16" height="10" rx="2"/>
    <circle cx="9" cy="12" r="2"/>
    <path d="M13 10h5M13 14h3"/>
  </symbol>
  <symbol id="ph-icon-warnings" viewBox="0 0 24 24">
    <path d="M12 4l9 16H3L12 4z"/>
    <path d="M12 10v4"/>
    <circle cx="12" cy="16.5" r="0.5" fill="currentColor"/>
  </symbol>
  <symbol id="ph-icon-errors" viewBox="0 0 24 24">
    <circle cx="12" cy="12" r="8"/>
    <path d="M9 9l6 6M15 9l-6 6"/>
  </symbol>
  <symbol id="ph-icon-success" viewBox="0 0 24 24">
    <circle cx="12" cy="12" r="8"/>
    <path d="M8 12l3 3 5-6"/>
  </symbol>
  <symbol id="ph-icon-notifications" viewBox="0 0 24 24">
    <path d="M6 16V11a6 6 0 1 1 12 0v5l2 2H4l2-2z"/>
    <path d="M10 19a2 2 0 0 0 4 0"/>
  </symbol>
  <symbol id="ph-icon-bookmarks" viewBox="0 0 24 24">
    <path d="M7 4h10v16l-5-3-5 3V4z"/>
  </symbol>
  <symbol id="ph-icon-favorites" viewBox="0 0 24 24">
    <path d="M12 4l2.2 4.5 5 .7-3.6 3.5.9 5L12 15.5 7.5 17.7l.9-5L4.8 9.2l5-.7L12 4z"/>
  </symbol>
  <symbol id="ph-icon-profile" viewBox="0 0 24 24">
    <circle cx="12" cy="9" r="3.5"/>
    <path d="M5 19c1.5-3 4-4.5 7-4.5s5.5 1.5 7 4.5"/>
  </symbol>
  <symbol id="ph-icon-marketplace" viewBox="0 0 24 24">
    <path d="M4 8h16l-1 11H5L4 8z"/>
    <path d="M8 8V6a4 4 0 0 1 8 0v2"/>
  </symbol>
  <symbol id="ph-icon-community" viewBox="0 0 24 24">
    <circle cx="9" cy="9" r="2.5"/>
    <circle cx="16" cy="10" r="2"/>
    <path d="M4 18c1-3 3-4 5-4s4 1 5 4"/>
    <path d="M14 18c.5-2 1.5-3 3.5-3 1.5 0 2.5.5 3.5 2"/>
  </symbol>
  <symbol id="ph-icon-terminal" viewBox="0 0 24 24">
    <rect x="3" y="5" width="18" height="14" rx="2"/>
    <path d="M7 10l3 2-3 2M12 14h4"/>
  </symbol>
  <symbol id="ph-icon-automation" viewBox="0 0 24 24">
    <circle cx="12" cy="12" r="3"/>
    <path d="M12 5V3M12 21v-2M5 12H3M21 12h-2M7 7L5.5 5.5M18.5 18.5L17 17M7 17l-1.5 1.5M18.5 5.5L17 7"/>
  </symbol>
  <symbol id="ph-icon-database" viewBox="0 0 24 24">
    <ellipse cx="12" cy="6" rx="7" ry="3"/>
    <path d="M5 6v6c0 1.7 3.1 3 7 3s7-1.3 7-3V6"/>
    <path d="M5 12v6c0 1.7 3.1 3 7 3s7-1.3 7-3v-6"/>
  </symbol>
  <symbol id="ph-icon-routing" viewBox="0 0 24 24">
    <circle cx="5" cy="6" r="2"/>
    <circle cx="19" cy="6" r="2"/>
    <circle cx="12" cy="18" r="2"/>
    <path d="M7 6h10M6 8l5 8M18 8l-5 8"/>
  </symbol>
  <symbol id="ph-icon-live-session" viewBox="0 0 24 24">
    <circle cx="12" cy="12" r="3" fill="currentColor"/>
    <circle cx="12" cy="12" r="7"/>
    <circle cx="12" cy="12" r="10"/>
  </symbol>
  <symbol id="ph-icon-snapshots" viewBox="0 0 24 24">
    <rect x="4" y="6" width="14" height="12" rx="1"/>
    <path d="M8 6V4h8v2"/>
    <circle cx="11" cy="12" r="2.5"/>
  </symbol>
  <symbol id="ph-icon-deploy" viewBox="0 0 24 24">
    <path d="M12 3l7 4v6c0 4-3 7-7 8-4-1-7-4-7-8V7l7-4z"/>
    <path d="M9 12l2 2 4-4"/>
  </symbol>
  <symbol id="ph-icon-monitoring" viewBox="0 0 24 24">
    <rect x="3" y="4" width="18" height="14" rx="2"/>
    <path d="M3 14h18"/>
    <path d="M7 11l2-3 2 2 3-4 2 2"/>
  </symbol>
</svg>
